HIERARCHY
ROOT Hips
{
  OFFSET 5.84602e-005 68.8428 3.50346
  CHANNELS 6 Xposition Yposition Zposition Zrotation Xrotation Yrotation
  JOINT Spine
  {
    OFFSET 0 8.597 -4.6522
    CHANNELS 3 Zrotation Xrotation Yrotation
    JOINT Spine1
    {
      OFFSET 0 7.8454 0.4098
      CHANNELS 3 Zrotation Xrotation Yrotation
      JOINT Spine2
      {
        OFFSET 0 9.7078 -2.1609
        CHANNELS 3 Zrotation Xrotation Yrotation
        JOINT Neck
        {
          OFFSET 0 21.8761 -0.4549
          CHANNELS 3 Zrotation Xrotation Yrotation
          JOINT Head
          {
            OFFSET 0 12.3537 3.3602
            CHANNELS 3 Zrotation Xrotation Yrotation
            End Site
            {
              OFFSET 0.0001 18.9506 0.5657
            }
          }
        }
        JOINT LeftShoulder
        {
          OFFSET 2.2086 21.1115 7.2329
          CHANNELS 3 Zrotation Xrotation Yrotation
          JOINT LeftArm
          {
            OFFSET 13.1193 3.0282 -4.8998
            CHANNELS 3 Zrotation Xrotation Yrotation
            JOINT LeftForeArm
            {
              OFFSET 27.4081 -0.0973053 -0.2375
              CHANNELS 3 Zrotation Xrotation Yrotation
              JOINT LeftHand
              {
                OFFSET 22.8641 0.0662994 -0.1369
                CHANNELS 3 Zrotation Xrotation Yrotation
                JOINT LeftHandIndex1
                {
                  OFFSET 8.8614 0.775009 2.4612
                  CHANNELS 3 Zrotation Xrotation Yrotation
                  JOINT LeftHandIndex2
                  {
                    OFFSET 3.3146 -0.808304 0.5841
                    CHANNELS 3 Zrotation Xrotation Yrotation
                    JOINT LeftHandIndex3
                    {
                      OFFSET 2.2628 -0.552002 0.3989
                      CHANNELS 3 Zrotation Xrotation Yrotation
                      End Site
                      {
                        OFFSET 1.6102 -0.4807 0.2612
                      }
                    }
                  }
                }
                JOINT LeftHandMiddle1
                {
                  OFFSET 8.9937 0.895004 0.2143
                  CHANNELS 3 Zrotation Xrotation Yrotation
                  JOINT LeftHandMiddle2
                  {
                    OFFSET 4.0984 0.0113983 -0.0242
                    CHANNELS 3 Zrotation Xrotation Yrotation
                    JOINT LeftHandMiddle3
                    {
                      OFFSET 2.2716 0.00689697 -0.0138001
                      CHANNELS 3 Zrotation Xrotation Yrotation
                      End Site
                      {
                        OFFSET 2.0404 -0.1441 0.0027
                      }
                    }
                  }
                }
                JOINT LeftHandRing1
                {
                  OFFSET 8.5234 0.597198 -2.0164
                  CHANNELS 3 Zrotation Xrotation Yrotation
                  JOINT LeftHandRing2
                  {
                    OFFSET 3.7188 -0.188293 -0.2328
                    CHANNELS 3 Zrotation Xrotation Yrotation
                    JOINT LeftHandRing3
                    {
                      OFFSET 2.1191 -0.106598 -0.1332
                      CHANNELS 3 Zrotation Xrotation Yrotation
                      End Site
                      {
                        OFFSET 1.8737 -0.2304 -0.0886
                      }
                    }
                  }
                }
                JOINT LeftHandPinky1
                {
                  OFFSET 7.9094 -0.601089 -3.4825
                  CHANNELS 3 Zrotation Xrotation Yrotation
                  JOINT LeftHandPinky2
                  {
                    OFFSET 2.2874 -0.477005 -0.6314
                    CHANNELS 3 Zrotation Xrotation Yrotation
                    JOINT LeftHandPinky3
                    {
                      OFFSET 1.6774 -0.349396 -0.4633
                      CHANNELS 3 Zrotation Xrotation Yrotation
                      End Site
                      {
                        OFFSET 1.4888 -0.4091 -0.3416
                      }
                    }
                  }
                }
                JOINT LeftHandThumb1
                {
                  OFFSET 1.833 -1.3875 1.3896
                  CHANNELS 3 Zrotation Xrotation Yrotation
                  JOINT LeftHandThumb2
                  {
                    OFFSET 3.4129 -1.121 2.5732
                    CHANNELS 3 Zrotation Xrotation Yrotation
                    JOINT LeftHandThumb3
                    {
                      OFFSET 2.2474 -0.804199 1.6192
                      CHANNELS 3 Zrotation Xrotation Yrotation
                      End Site
                      {
                        OFFSET 1.6527 -0.5689 1.1317
                      }
                    }
                  }
                }
              }
            }
          }
        }
        JOINT RightShoulder
        {
          OFFSET -2.2086 21.1115 7.2329
          CHANNELS 3 Zrotation Xrotation Yrotation
          JOINT RightArm
          {
            OFFSET -13.1216 3.0287 -4.9007
            CHANNELS 3 Zrotation Xrotation Yrotation
            JOINT RightForeArm
            {
              OFFSET -27.4081 -0.0973053 -0.2375
              CHANNELS 3 Zrotation Xrotation Yrotation
              JOINT RightHand
              {
                OFFSET -22.8641 0.0664063 -0.1369
                CHANNELS 3 Zrotation Xrotation Yrotation
                JOINT RightHandIndex1
                {
                  OFFSET -8.8614 0.774994 2.4612
                  CHANNELS 3 Zrotation Xrotation Yrotation
                  JOINT RightHandIndex2
                  {
                    OFFSET -3.3146 -0.808304 0.5841
                    CHANNELS 3 Zrotation Xrotation Yrotation
                    JOINT RightHandIndex3
                    {
                      OFFSET -2.2628 -0.552002 0.3989
                      CHANNELS 3 Zrotation Xrotation Yrotation
                      End Site
                      {
                        OFFSET -1.6102 -0.4807 0.2612
                      }
                    }
                  }
                }
                JOINT RightHandMiddle1
                {
                  OFFSET -8.9937 0.894989 0.2143
                  CHANNELS 3 Zrotation Xrotation Yrotation
                  JOINT RightHandMiddle2
                  {
                    OFFSET -4.0984 0.0113983 -0.0242
                    CHANNELS 3 Zrotation Xrotation Yrotation
                    JOINT RightHandMiddle3
                    {
                      OFFSET -2.2716 0.00691223 -0.0138001
                      CHANNELS 3 Zrotation Xrotation Yrotation
                      End Site
                      {
                        OFFSET -2.0404 -0.1441 0.0027
                      }
                    }
                  }
                }
                JOINT RightHandRing1
                {
                  OFFSET -8.5234 0.597198 -2.0164
                  CHANNELS 3 Zrotation Xrotation Yrotation
                  JOINT RightHandRing2
                  {
                    OFFSET -3.7188 -0.188309 -0.2328
                    CHANNELS 3 Zrotation Xrotation Yrotation
                    JOINT RightHandRing3
                    {
                      OFFSET -2.1191 -0.106598 -0.1332
                      CHANNELS 3 Zrotation Xrotation Yrotation
                      End Site
                      {
                        OFFSET -1.8737 -0.2304 -0.0886
                      }
                    }
                  }
                }
                JOINT RightHandPinky1
                {
                  OFFSET -7.9094 -0.601105 -3.4825
                  CHANNELS 3 Zrotation Xrotation Yrotation
                  JOINT RightHandPinky2
                  {
                    OFFSET -2.2874 -0.477005 -0.6314
                    CHANNELS 3 Zrotation Xrotation Yrotation
                    JOINT RightHandPinky3
                    {
                      OFFSET -1.6774 -0.349396 -0.4633
                      CHANNELS 3 Zrotation Xrotation Yrotation
                      End Site
                      {
                        OFFSET -1.4888 -0.4091 -0.3416
                      }
                    }
                  }
                }
                JOINT RightHandThumb1
                {
                  OFFSET -1.833 -1.38751 1.3896
                  CHANNELS 3 Zrotation Xrotation Yrotation
                  JOINT RightHandThumb2
                  {
                    OFFSET -3.41299 -1.12099 2.5732
                    CHANNELS 3 Zrotation Xrotation Yrotation
                    JOINT RightHandThumb3
                    {
                      OFFSET -2.24741 -0.804108 1.6192
                      CHANNELS 3 Zrotation Xrotation Yrotation
                      End Site
                      {
                        OFFSET -1.6527 -0.5689 1.1317
                      }
                    }
                  }
                }
              }
            }
          }
        }
      }
    }
  }
  JOINT RightUpLeg
  {
    OFFSET -9.1966 3.8861 -0.7581
    CHANNELS 3 Zrotation Xrotation Yrotation
    JOINT RightLeg
    {
      OFFSET -0.7359 -41.0265 0
      CHANNELS 3 Zrotation Xrotation Yrotation
      JOINT RightFoot
      {
        OFFSET 0 -40.2855 0
        CHANNELS 3 Zrotation Xrotation Yrotation
        JOINT RightToeBase
        {
          OFFSET 0 -5.6122 11.7359
          CHANNELS 3 Zrotation Xrotation Yrotation
          End Site
          {
            OFFSET 0 0 7.8731
          }
        }
      }
    }
  }
  JOINT LeftUpLeg
  {
    OFFSET 9.1965 3.8864 -0.7581
    CHANNELS 3 Zrotation Xrotation Yrotation
    JOINT LeftLeg
    {
      OFFSET 0.7359 -41.0268 0
      CHANNELS 3 Zrotation Xrotation Yrotation
      JOINT LeftFoot
      {
        OFFSET 0 -40.2855 0
        CHANNELS 3 Zrotation Xrotation Yrotation
        JOINT LeftToeBase
        {
          OFFSET 0 -5.6122 11.7359
          CHANNELS 3 Zrotation Xrotation Yrotation
          End Site
          {
            OFFSET 0 0 7.8731
          }
        }
      }
    }
  }
}
MOTION
Frames:	6
Frame Time:	0.0333333
39.7424 21.3502 4.82901 0.215919 -51.9965 -179.545 -0.218644 12.102 -0.0940627 -0.431413 24.204 -0.144644 -0.431412 24.204 -0.144644 10.1082 -8.45462 1.49989 -1.34607e-007 -2.91644 1.39395e-006 5.86731 -25.7925 -30.5969 1.48433 -4.46218 -40.4907 5.23418 -12.1083 -8.50357 59.4955 -9.9481 3.30627 -2.59636e-007 3.34074e-007 5.29017e-008 -8.1355e-008 -5.12258e-007 4.16619e-006 -2.59636e-007 3.34074e-007 5.29018e-008 -2.59636e-007 3.34074e-007 5.29017e-008 -0.0146439 -8.82513e-005 4.30184e-006 -2.59633e-007 3.34067e-007 5.29447e-008 -2.59636e-007 3.34074e-007 5.29017e-008 -0.0187809 -0.00117915 5.95555e-005 -2.59632e-007 3.34065e-007 5.29592e-008 -2.59636e-007 3.34074e-007 5.29017e-008 -0.0122306 -0.00323746 0.000676062 -2.5963e-007 3.3407e-007 5.29446e-008 -2.59636e-007 3.34074e-007 5.29017e-008 -8.1355e-008 -5.12258e-007 4.16619e-006 -2.59636e-007 3.34074e-007 5.29018e-008 -3.02576 -25.1205 24.009 -1.85966 -4.12842 55.7356 -8.65345 -12.4261 10.2007 -58.7663 -0.690257 -6.97959 -3.18055e-015 -5.96354e-015 1.59028e-015 -1.43452e-031 -5.1684e-015 -1.59028e-015 -3.18055e-015 -6.75868e-015 -0 -3.18055e-015 -5.96354e-015 1.59028e-015 0.0150162 -8.99291e-005 -4.41639e-007 -1.59028e-015 1.98785e-015 -1.59028e-015 -3.18055e-015 -5.96354e-015 1.59028e-015 0.0190165 -0.00119214 -6.83584e-005 -6.89252e-007 2.78663e-008 -1.06635e-006 -3.18055e-015 -5.96354e-015 1.59028e-015 0.0122258 -0.00323585 -0.000679667 -1.59028e-015 -1.59028e-015 1.59028e-015 -3.18055e-015 -5.96354e-015 1.59028e-015 -1.43452e-031 -5.1684e-015 -1.59028e-015 -3.18055e-015 -6.75868e-015 -0 -141.897 -21.26 -171.369 -131.61 70.0005 129.686 -16.0683 -2.83283 -4.4097 5.10713e-007 -1.17431e-006 -4.81839e-006 141.908 -21.2749 171.36 131.682 70.0042 -129.763 16.0552 -2.84195 4.39925 -3.00146e-030 2.70347e-014 6.36111e-015 
39.7424 21.3502 4.74991 0.215919 -51.9965 -179.545 -0.218485 12.112 -0.094272 -0.431042 24.2241 -0.145075 -0.431042 24.2241 -0.145075 10.1422 -9.65049 1.71618 -1.25313e-006 -3.77483 -3.51618e-007 5.99207 -25.8242 -31.4739 1.46008 -4.47908 -39.5531 5.01042 -12.0893 -8.3192 59.7255 -10.1491 3.18483 -2.59635e-007 3.34074e-007 5.29016e-008 7.78906e-007 -1.00222e-006 -1.58705e-007 -2.59635e-007 3.34074e-007 5.29016e-008 -2.59635e-007 3.34074e-007 5.29016e-008 -0.0146256 -8.96129e-005 3.44661e-006 -2.59633e-007 3.34067e-007 5.29444e-008 -2.59635e-007 3.34074e-007 5.29016e-008 -0.0188093 -0.00117994 5.75612e-005 -2.59631e-007 3.34066e-007 5.29591e-008 -2.59635e-007 3.34074e-007 5.29016e-008 -0.0122598 -0.00324793 0.000681311 -2.5963e-007 3.34071e-007 5.29446e-008 -2.59635e-007 3.34074e-007 5.29016e-008 7.78906e-007 -1.00222e-006 -1.58705e-007 -2.59635e-007 3.34074e-007 5.29016e-008 -3.12366 -25.0791 24.7031 -1.83943 -4.13011 55.1103 -8.59427 -12.4172 9.87735 -58.9398 -0.889897 -6.84188 -3.18055e-015 -1.59028e-015 3.18055e-015 -3.18055e-015 -7.95139e-016 3.18055e-015 1.59028e-015 -1.19271e-015 -0 -3.18055e-015 -1.59028e-015 3.18055e-015 0.0150213 -9.04929e-005 -4.86851e-007 1.59028e-015 -1.98785e-015 -0 -3.18055e-015 -1.59028e-015 3.18055e-015 0.0190317 -0.00119333 -6.53411e-005 3.18055e-015 3.97569e-016 -0 -3.18055e-015 -1.59028e-015 3.18055e-015 0.0122511 -0.00324285 -0.000675075 4.77083e-015 -4.77083e-015 -1.59028e-015 -3.18055e-015 -1.59028e-015 3.18055e-015 -3.18055e-015 -7.95139e-016 3.18055e-015 1.59028e-015 -1.19271e-015 -0 -141.898 -21.2602 -171.37 -131.597 70.0041 129.676 -16.0547 -2.97801 -4.3626 1.43397e-006 8.28556e-008 3.26001e-006 141.909 -21.2751 171.361 131.67 70.0078 -129.754 16.0413 -2.98762 4.3518 -5.56597e-015 -1.59028e-015 6.36111e-015 
39.7424 21.3502 4.67082 0.215919 -51.9965 -179.545 -0.218333 12.1221 -0.0944793 -0.430685 24.2443 -0.145503 -0.430685 24.2442 -0.145503 10.181 -10.8482 1.93429 2.22907e-006 -4.63374 -3.36106e-006 6.11626 -25.8576 -32.351 1.43609 -4.49636 -38.6157 4.78663 -12.0711 -8.13479 59.9553 -10.3505 3.06413 -4.22484e-007 -1.85068e-007 -1.21991e-006 2.59634e-007 -3.34075e-007 -5.29014e-008 -4.77083e-015 0 1.11319e-014 -4.22484e-007 -1.85068e-007 -1.21991e-006 -0.0146432 -9.08845e-005 1.36555e-005 4.41391e-032 -3.97569e-016 6.36111e-015 -4.22484e-007 -1.85068e-007 -1.21991e-006 -0.0187411 -0.00117465 4.5975e-005 -8.82781e-032 7.95139e-016 6.36111e-015 -4.22484e-007 -1.85068e-007 -1.21991e-006 -0.0122815 -0.00325096 0.000682997 4.77083e-015 -4.77083e-015 -3.18055e-015 -4.22484e-007 -1.85068e-007 -1.21991e-006 2.59634e-007 -3.34075e-007 -5.29014e-008 -4.77083e-015 0 1.11319e-014 -3.22205 -25.0389 25.3968 -1.81925 -4.13203 54.485 -8.53503 -12.4086 9.55407 -59.1128 -1.08995 -6.70475 1.27222e-014 0 -1.27222e-014 7.95139e-015 -7.95139e-016 -1.11319e-014 9.54166e-015 0 -7.95139e-015 1.27222e-014 0 -1.27222e-014 0.0149695 -9.02292e-005 7.28908e-006 1.59028e-015 2.38542e-015 -1.59028e-015 1.27222e-014 0 -1.27222e-014 0.0189984 -0.00119102 -6.79242e-005 -6.89004e-007 2.79718e-008 -1.06596e-006 1.27222e-014 0 -1.27222e-014 0.0122469 -0.00324364 -0.000679079 4.77083e-015 -2.46493e-014 9.54166e-015 1.27222e-014 0 -1.27222e-014 7.95139e-015 -7.95139e-016 -1.11319e-014 9.54166e-015 0 -7.95139e-015 -141.898 -21.2604 -171.37 -131.584 70.0077 129.667 -16.0411 -3.12315 -4.3154 1.59028e-015 -3.18055e-015 3.18055e-015 141.909 -21.2753 171.362 131.657 70.0114 -129.745 16.0273 -3.13325 4.30432 5.81917e-007 7.00502e-007 -3.36e-006 
39.7424 21.3502 4.54862 0.215919 -51.9965 -179.545 -0.218176 12.132 -0.0946871 -0.43032 24.2644 -0.145933 -0.43032 24.2644 -0.145933 10.2246 -12.0462 2.15436 2.29278e-006 -5.4931 -1.25691e-006 6.23988 -25.8927 -33.2278 1.41241 -4.51403 -37.6787 4.56282 -12.0536 -7.95034 60.1847 -10.5524 2.9442 2.59633e-007 -3.34076e-007 -5.29007e-008 -3.18055e-015 1.15295e-014 1.59028e-015 2.59633e-007 -3.34076e-007 -5.29007e-008 2.59633e-007 -3.34076e-007 -5.29007e-008 -0.0145988 -8.95552e-005 2.4791e-006 2.5963e-007 -3.3407e-007 -5.29434e-008 2.59633e-007 -3.34076e-007 -5.29007e-008 -0.0187583 -0.00117723 5.17972e-005 2.59629e-007 -3.34068e-007 -5.2958e-008 2.59633e-007 -3.34076e-007 -5.29007e-008 -0.0122833 -0.00325229 0.000673266 2.59627e-007 -3.34073e-007 -5.29437e-008 2.59633e-007 -3.34076e-007 -5.29007e-008 -3.18055e-015 1.15295e-014 1.59028e-015 2.59633e-007 -3.34076e-007 -5.29007e-008 -3.32091 -24.9998 26.0903 -1.79909 -4.13413 53.8599 -8.47576 -12.4003 9.23079 -59.2853 -1.2904 -6.56824 6.61572e-007 -5.28825e-007 4.96114e-008 -8.23241e-007 1.21878e-006 -1.21081e-006 6.61572e-007 -5.28826e-007 4.96114e-008 6.61572e-007 -5.28825e-007 4.96114e-008 0.0150051 -9.0388e-005 -9.84301e-007 6.6156e-007 -5.28819e-007 4.96801e-008 6.61572e-007 -5.28825e-007 4.96114e-008 0.0189444 -0.00118723 -5.29175e-005 6.61557e-007 -5.28816e-007 4.9692e-008 6.61572e-007 -5.28825e-007 4.96114e-008 0.012209 -0.00323232 -0.000675124 6.61566e-007 -5.28814e-007 4.96496e-008 6.61572e-007 -5.28825e-007 4.96114e-008 -8.23241e-007 1.21878e-006 -1.21081e-006 6.61572e-007 -5.28826e-007 4.96114e-008 -141.899 -21.2605 -171.371 -131.572 70.0113 129.658 -16.0274 -3.26834 -4.26823 1.45052e-006 9.62119e-007 1.34786e-007 141.91 -21.2755 171.363 131.644 70.015 -129.735 16.0131 -3.27883 4.2568 2.16009e-006 1.01676e-006 -1.71514e-007 
39.7424 21.3502 4.42642 0.215919 -51.9965 -179.545 -0.218018 12.1421 -0.0948938 -0.429948 24.2844 -0.146364 -0.429948 24.2845 -0.146363 10.2733 -13.245 2.37659 -7.00265e-007 -6.3528 1.38192e-006 6.36285 -25.9295 -34.1043 1.38903 -4.53208 -36.7422 4.33896 -12.0368 -7.76581 60.4138 -10.7547 2.82497 -5.19262e-007 6.68156e-007 1.05799e-007 -1.48895e-007 -1.18742e-006 -1.4667e-007 -5.19262e-007 6.68156e-007 1.05799e-007 -5.19262e-007 6.68156e-007 1.05799e-007 -0.0145905 -9.05197e-005 2.06393e-006 -3.53149e-007 4.89865e-007 3.09286e-006 -5.19262e-007 6.68156e-007 1.05799e-007 -0.0187711 -0.00117787 5.10417e-005 -5.19254e-007 6.6814e-007 1.05914e-007 -5.19262e-007 6.68156e-007 1.05799e-007 -0.0122007 -0.0032322 0.000679948 -5.1925e-007 6.68149e-007 1.05885e-007 -5.19262e-007 6.68156e-007 1.05799e-007 -1.48895e-007 -1.18742e-006 -1.4667e-007 -5.19262e-007 6.68156e-007 1.05799e-007 -3.42024 -24.9617 26.7833 -1.77892 -4.13649 53.235 -8.41642 -12.3924 8.90754 -59.4573 -1.49125 -6.43231 -2.64834e-031 4.77083e-015 3.18055e-015 0 4.77083e-015 -0 -1.59028e-015 3.97569e-015 1.59028e-015 -2.64834e-031 4.77083e-015 3.18055e-015 0.0150164 -9.14012e-005 1.32581e-007 1.59028e-015 -3.97569e-015 1.59028e-015 -2.64834e-031 4.77083e-015 3.18055e-015 0.0189959 -0.00119126 -5.88153e-005 -1.59028e-015 1.19271e-015 -4.77083e-015 -2.64834e-031 4.77083e-015 3.18055e-015 0.0122432 -0.00324088 -0.000673639 6.36111e-015 -1.74931e-014 4.77083e-015 -2.64834e-031 4.77083e-015 3.18055e-015 0 4.77083e-015 -0 -1.59028e-015 3.97569e-015 1.59028e-015 -141.9 -21.2607 -171.372 -131.559 70.0149 129.648 -16.0136 -3.41343 -4.22098 1.59197e-006 5.63256e-007 7.20886e-008 141.911 -21.2756 171.364 131.632 70.0186 -129.726 15.9988 -3.42448 4.20926 -2.42875e-006 -2.09236e-007 -5.53239e-006 
39.7424 21.3502 4.30422 0.215919 -51.9965 -179.545 -0.217863 12.1521 -0.0951015 -0.429589 24.3045 -0.146791 -0.429589 24.3045 -0.14679 10.3271 -14.4445 2.60115 -2.12018e-007 -7.21275 -3.80526e-007 6.48513 -25.968 -34.9805 1.36597 -4.55047 -35.8063 4.11509 -12.0207 -7.58125 60.6427 -10.9575 2.70657 3.18055e-015 1.59028e-015 1.59028e-015 1.59028e-015 3.97569e-016 -0 -3.18055e-015 -1.98785e-015 -0 3.18055e-015 1.59028e-015 1.59028e-015 -0.0146372 -9.02038e-005 8.17291e-006 3.18055e-015 -7.15625e-015 -0 3.18055e-015 1.59028e-015 1.59028e-015 -0.0187596 -0.00117669 5.50288e-005 3.18055e-015 -1.19271e-015 -4.77083e-015 3.18055e-015 1.59028e-015 1.59028e-015 -0.0122616 -0.00324685 0.000681674 -1.59028e-015 -8.34896e-015 -4.77083e-015 3.18055e-015 1.59028e-015 1.59028e-015 1.59028e-015 3.97569e-016 -0 -3.18055e-015 -1.98785e-015 -0 -3.51998 -24.9248 27.476 -1.75881 -4.13907 52.6102 -8.35708 -12.3848 8.5843 -59.6288 -1.69251 -6.297 -1.59028e-015 1.19271e-015 1.59028e-015 -1.59028e-015 1.19271e-015 -3.18055e-015 0 1.19271e-015 -0 -1.59028e-015 1.19271e-015 1.59028e-015 0.0150016 -9.32639e-005 -7.62408e-006 -6.88981e-007 2.86857e-008 -1.06471e-006 -1.59028e-015 1.19271e-015 1.59028e-015 0.0189843 -0.00119208 -6.67061e-005 -6.88652e-007 2.85547e-008 -1.06471e-006 -1.59028e-015 1.19271e-015 1.59028e-015 0.0122378 -0.00324061 -0.000669014 -1.59028e-015 -7.95139e-016 -0 -1.59028e-015 1.19271e-015 1.59028e-015 -1.59028e-015 1.19271e-015 -3.18055e-015 0 1.19271e-015 -0 -141.9 -21.2608 -171.373 -131.547 70.0185 129.639 -15.9996 -3.55856 -4.17372 1.40572e-007 -3.98087e-007 -6.07657e-008 141.912 -21.2758 171.365 131.619 70.0222 -129.717 15.9844 -3.57005 4.16165 5.67046e-007 6.99229e-007 -3.36317e-006 
